<svg width="42" height="39" viewBox="0 0 42 39" fill="none" xmlns="http://www.w3.org/2000/svg">
<line x1="33.3984" y1="34" x2="33.3984" y2="31" stroke="white"/>
<path d="M4.78134 9.83524C5.13771 9.71645 6.10783 9.58776 7.69171 9.44917C9.27559 9.29078 10.711 9.21159 11.9979 9.21159C13.3046 9.21159 14.3143 9.27098 15.0271 9.38977C15.0469 9.46897 15.0568 9.56796 15.0568 9.68675C15.0568 9.78574 14.9974 10.0332 14.8786 10.4292C14.7796 10.8252 14.7004 11.0825 14.641 11.2013C14.4826 11.3597 14.0371 11.4785 13.3046 11.5577L18.9769 27.9806L21.7981 28.2181C21.7981 28.7725 21.6298 29.3664 21.2933 30H14.4628L14.3737 28.9606C14.8291 28.723 15.4923 28.5151 16.3635 28.3369L14.8489 24.0902H6.5632L5.16741 27.9806L7.57292 28.2181C7.57292 28.7725 7.40464 29.3664 7.06806 30H0.237582L0.148489 28.9606C0.92063 28.6834 1.74227 28.4656 2.6134 28.3072L8.37476 11.4686C6.6127 11.2706 5.37529 11.033 4.66254 10.7559L4.78134 9.83524ZM12.5027 17.4676L10.9288 11.6468C10.81 11.627 10.6417 11.6171 10.4239 11.6171L8.82023 17.6754L7.09776 22.1895H14.3143L12.5027 17.4676ZM20.5882 37.1572C19.9546 37.1572 19.1825 37.0285 18.2718 36.7711C17.3412 36.5137 16.7077 36.2761 16.3711 36.0583C16.4701 34.2567 16.6582 32.9401 16.9354 32.1085C17.3709 32.0293 17.7471 31.9897 18.0639 31.9897C18.3609 31.9897 18.5588 31.9996 18.6578 32.0194L19.4003 35.2565C19.6973 35.3555 20.1328 35.405 20.707 35.405C22.4294 35.405 23.2907 33.9894 23.2907 31.1582C23.2907 29.4951 23.2511 27.0104 23.1719 23.7041C23.1125 20.3779 23.0729 18.1704 23.0531 17.0815C21.9642 17.0221 21.093 16.9033 20.4397 16.7251L20.5585 15.1808C21.5682 14.8839 23.0333 14.7354 24.9538 14.7354C25.5675 14.7354 26.0031 14.7552 26.2605 14.7948C26.2605 15.2699 26.2011 15.7946 26.0823 16.3687C25.9635 16.9429 25.8942 17.2201 25.8744 17.2003C25.815 20.1305 25.7457 24.595 25.6665 30.594C25.6269 32.851 25.2507 34.5042 24.538 35.5535C23.845 36.6226 22.5284 37.1572 20.5882 37.1572ZM25.9635 12.0923C25.4487 12.2111 24.9439 12.2705 24.4489 12.2705C23.9737 12.2705 23.4986 12.2408 23.0234 12.1814C22.9046 11.627 22.8452 11.0726 22.8452 10.5183C22.8452 9.94413 22.865 9.51846 22.9046 9.24128C23.3402 9.14229 23.7955 9.09279 24.2707 9.09279C24.7657 9.09279 25.2903 9.11259 25.8447 9.15219C25.9635 9.66695 26.0229 10.1718 26.0229 10.6668C26.0229 11.1419 26.0031 11.6171 25.9635 12.0923ZM33.0065 28.5745C34.6696 28.5745 35.7882 28.0597 36.3623 27.0302C36.9563 25.9809 37.2533 24.496 37.2533 22.5756C37.2533 19.5266 36.5801 17.616 35.2338 16.8439C34.6795 16.5271 33.8974 16.3687 32.8877 16.3687C31.8978 16.3687 30.9573 16.5766 30.0664 16.9924C29.2745 18.5169 28.8785 20.2888 28.8785 22.3083C28.8785 24.2485 29.1359 25.7433 29.6506 26.7926C30.2446 27.9806 31.3632 28.5745 33.0065 28.5745ZM26.1463 22.5756C26.1463 20.0612 26.7205 18.1011 27.8688 16.6954C29.0171 15.2699 30.789 14.5572 33.1847 14.5572C35.5803 14.5572 37.3126 15.2105 38.3818 16.5172C39.4509 17.8041 39.9854 19.7147 39.9854 22.2489C39.9854 24.7831 39.4113 26.7728 38.263 28.2181C37.1345 29.6634 35.412 30.3861 33.0956 30.3861C30.7791 30.3861 29.0369 29.7129 27.8688 28.3666C26.7205 27.0203 26.1463 25.09 26.1463 22.5756Z" fill="white"/>
<line x1="9.48241" y1="7.72265" x2="13.4824" y2="1.72265" stroke="white"/>
</svg>
