<svg width="115" height="114" viewBox="0 0 115 114" fill="none" xmlns="http://www.w3.org/2000/svg">
<path d="M37.4978 19C37.4978 18.0552 37.1224 17.149 36.4543 16.4809C35.7862 15.8128 34.8801 15.4375 33.9353 15.4375C32.9904 15.4375 32.0843 15.8128 31.4162 16.4809C30.7481 17.149 30.3728 18.0552 30.3728 19L30.3728 27.626C26.9074 28.1174 23.6981 29.7294 21.2349 32.2158C18.7716 34.7022 17.1897 37.9265 16.7308 41.3963L16.3175 44.498C16.2463 45.0205 16.1798 45.5477 16.118 46.075C16.0797 46.4041 16.1117 46.7375 16.2118 47.0533C16.3119 47.3692 16.4778 47.6601 16.6987 47.9071C16.9196 48.154 17.1904 48.3512 17.4931 48.4858C17.7959 48.6203 18.1237 48.689 18.455 48.6875L96.9203 48.6875C97.2516 48.689 97.5794 48.6203 97.8822 48.4858C98.1849 48.3512 98.4557 48.154 98.6766 47.9071C98.8974 47.6601 99.0634 47.3692 99.1635 47.0533C99.2636 46.7375 99.2956 46.4041 99.2573 46.075C99.1908 45.5525 99.129 45.0205 99.0578 44.498L98.6445 41.3963C98.1856 37.9265 96.6037 34.7022 94.1404 32.2158C91.6772 29.7294 88.4678 28.1174 85.0025 27.626L85.0025 19C85.0025 18.0552 84.6272 17.149 83.9591 16.4809C83.291 15.8128 82.3848 15.4375 81.44 15.4375C80.4952 15.4375 79.5891 15.8128 78.921 16.4809C78.2529 17.149 77.8775 18.0552 77.8775 19L77.8775 26.923C64.4458 25.7268 50.9343 25.7268 37.5025 26.923L37.4978 19ZM100.174 58.0735C100.152 57.4645 99.8935 56.888 99.4538 56.466C99.0141 56.044 98.4275 55.8096 97.818 55.8125L17.5525 55.8125C16.9431 55.8096 16.3564 56.044 15.9167 56.466C15.477 56.888 15.2187 57.4645 15.1965 58.0735C14.9134 66.6695 15.4382 75.2731 16.764 83.771C17.2518 86.9019 18.7659 89.782 21.0684 91.9589C23.3708 94.1359 26.3312 95.4863 29.4845 95.798L35.1513 96.3585C50.1375 97.831 65.233 97.831 80.2193 96.3585L85.886 95.798C89.0393 95.4863 91.9997 94.1359 94.3022 91.9589C96.6046 89.782 98.1187 86.9019 98.6065 83.771C99.9304 75.2729 100.455 66.6695 100.174 58.0735Z" fill="white" fill-opacity="0.28"/>
</svg>
