<svg width="107" height="107" viewBox="0 0 107 107" fill="none" xmlns="http://www.w3.org/2000/svg">
<g clip-path="url(#clip0_64_1682)">
<path fill-rule="evenodd" clip-rule="evenodd" d="M22.1487 17.7188C18.6242 17.7188 15.244 19.1189 12.7517 21.6111C10.2595 24.1033 8.85938 27.4835 8.85938 31.0081V35.4379H97.455V31.0081C97.455 27.4835 96.0549 24.1033 93.5627 21.6111C91.0705 19.1189 87.6903 17.7188 84.1657 17.7188H22.1487ZM97.455 44.2975H8.85938V75.3059C8.85938 78.8305 10.2595 82.2107 12.7517 84.7029C15.244 87.1952 18.6242 88.5953 22.1487 88.5953H84.1657C87.6903 88.5953 91.0705 87.1952 93.5627 84.7029C96.0549 82.2107 97.455 78.8305 97.455 75.3059V44.2975ZM35.4381 66.4464C35.4381 65.2715 35.9048 64.1448 36.7355 63.314C37.5663 62.4833 38.693 62.0166 39.8679 62.0166H59.4209L58.8849 61.4806C58.0537 60.65 57.5865 59.5232 57.5861 58.3481C57.5857 57.173 58.0521 56.0459 58.8827 55.2147C59.7133 54.3835 60.8401 53.9162 62.0152 53.9158C63.1903 53.9154 64.3174 54.3818 65.1486 55.2124L73.2463 63.3145C74.0767 64.1452 74.5433 65.2718 74.5433 66.4464C74.5433 67.621 74.0767 68.7475 73.2463 69.5782L65.1486 77.6759C64.74 78.099 64.2512 78.4364 63.7108 78.6686C63.1703 78.9008 62.589 79.023 62.0008 79.0281C61.4127 79.0332 60.8293 78.9211 60.2849 78.6984C59.7405 78.4756 59.2459 78.1467 58.83 77.7308C58.4141 77.3149 58.0852 76.8203 57.8624 76.2759C57.6397 75.7315 57.5276 75.1481 57.5327 74.56C57.5378 73.9718 57.66 73.3905 57.8922 72.8501C58.1244 72.3096 58.4618 71.8208 58.8849 71.4122L59.4209 70.8762H39.8679C38.693 70.8762 37.5663 70.4095 36.7355 69.5787C35.9048 68.748 35.4381 67.6212 35.4381 66.4464Z" fill="white" fill-opacity="0.4"/>
</g>
<defs>
<clipPath id="clip0_64_1682">
<rect width="106.315" height="106.315" fill="white"/>
</clipPath>
</defs>
</svg>
