<svg width="1394" height="953" viewBox="0 0 1394 953" fill="none" xmlns="http://www.w3.org/2000/svg">
<path d="M1308.27 549.456C1308.27 703.234 1284.1 879.368 1221.6 1016.98C1159.11 1154.55 1058.52 1253.24 905.687 1253.24C752.172 1253.24 488.433 1183.69 279.958 1049.02C71.8922 914.605 -80.4663 715.825 -14.3417 457.073C306.823 456.696 542.223 340.912 735.637 225.262C770.951 204.147 804.834 183.056 837.574 162.677C894.706 127.114 948.358 93.7188 1000.06 66.1382C1081.33 22.78 1157.39 -5.97476 1233.86 -5.97476C1310.71 -5.97476 1353.1 9.63041 1374.08 37.0388C1395.1 64.4836 1395.23 104.481 1385.54 154.893C1379.55 186.094 1369.89 220.909 1359.38 258.784C1352.92 282.067 1346.13 306.506 1339.68 331.972C1322.78 398.73 1308.27 472.243 1308.27 549.456Z" stroke="#EAAB40" stroke-opacity="0.2" stroke-width="4.05048"/>
<path d="M1267.19 581.37C1267.19 721.605 1245.16 882.227 1188.16 1007.72C1131.17 1133.18 1039.44 1223.17 900.066 1223.17C760.071 1223.17 519.558 1159.75 329.443 1036.93C139.702 914.361 0.761021 733.086 61.0622 497.122C353.942 496.779 568.611 391.192 744.991 285.727C777.195 266.471 808.094 247.238 837.951 228.654C890.052 196.223 938.979 165.768 986.126 140.617C1060.24 101.077 1129.61 74.8547 1199.34 74.8547C1269.42 74.8547 1308.07 89.0855 1327.21 114.08C1346.37 139.108 1346.49 175.583 1337.66 221.555C1332.2 250.008 1323.39 281.757 1313.8 316.296C1307.91 337.528 1301.72 359.815 1295.84 383.039C1280.43 443.918 1267.19 510.957 1267.19 581.37Z" stroke="#EAAB40" stroke-opacity="0.2" stroke-width="3.69376"/>
<path d="M1214.29 592.883C1214.29 711.711 1195.62 847.815 1147.32 954.149C1099.03 1060.46 1021.3 1136.72 903.201 1136.72C784.576 1136.72 580.778 1082.97 419.683 978.906C258.905 875.043 141.174 721.44 192.27 521.495C440.443 521.204 622.343 431.735 771.799 342.369C799.087 326.053 825.27 309.755 850.569 294.008C894.716 266.528 936.174 240.722 976.125 219.41C1038.93 185.906 1097.7 163.686 1156.79 163.686C1216.18 163.686 1248.93 175.745 1265.14 196.924C1281.38 218.131 1281.48 249.038 1274 287.993C1269.37 312.103 1261.9 339.005 1253.78 368.271C1248.79 386.263 1243.55 405.148 1238.56 424.827C1225.5 476.413 1214.29 533.218 1214.29 592.883Z" stroke="#EAAB40" stroke-opacity="0.2" stroke-width="3.12992"/>
<path d="M1114.48 645.964C1114.48 740.328 1099.65 848.41 1061.29 932.852C1022.95 1017.27 961.222 1077.83 867.438 1077.83C773.236 1077.83 611.396 1035.15 483.468 952.512C355.791 870.033 262.298 748.054 302.875 589.274C499.953 589.043 644.403 517.994 763.089 447.027C784.759 434.07 805.551 421.128 825.641 408.622C860.7 386.8 893.622 366.307 925.348 349.383C975.221 322.776 1021.9 305.131 1068.82 305.131C1115.98 305.131 1141.99 314.707 1154.86 331.526C1167.76 348.367 1167.84 372.911 1161.9 403.846C1158.22 422.992 1152.29 444.355 1145.84 467.596C1141.87 481.884 1137.71 496.88 1133.75 512.508C1123.38 553.473 1114.48 598.583 1114.48 645.964Z" stroke="#EAAB40" stroke-opacity="0.2" stroke-width="2.48552"/>
</svg>
