<svg width="180" height="162" viewBox="0 0 180 162" fill="none" xmlns="http://www.w3.org/2000/svg">
<path d="M77.0325 99.0166L86.8256 93.4971C95.5409 88.5859 105.687 87.0949 115.266 89.3191L128.46 92.383C132.655 93.3572 136.102 88.7844 134.011 85.0199L127.637 73.5485C122.739 64.7318 121.438 54.2735 124.003 44.3343L126.974 32.8245C128.076 28.5533 123.581 25.1647 119.778 27.4004L109.531 33.4249C100.682 38.6275 90.2696 40.2563 80.4451 37.975L67.6625 35.0067C63.4674 34.0325 60.0205 38.6053 62.1121 42.3699L68.6907 54.211C73.4661 62.8065 74.8265 72.9714 72.5045 82.7018L69.8949 93.6364C68.8921 97.8391 73.2681 101.138 77.0325 99.0166ZM97.8953 146.155L100.651 144.601C105.563 141.831 111.284 140.989 116.686 142.242L120.84 143.205C123.087 143.726 124.931 141.28 123.812 139.263L121.858 135.743C119.097 130.77 118.365 124.873 119.812 119.27L120.661 115.987C121.252 113.698 118.841 111.881 116.804 113.079L113.881 114.799C108.894 117.734 103.023 118.653 97.4819 117.368L93.5597 116.459C91.3132 115.938 89.4693 118.384 90.5885 120.401L92.6581 124.13C95.3501 128.978 96.1155 134.71 94.8047 140.195L94.07 143.272C93.5316 145.524 95.8783 147.293 97.8953 146.155Z" fill="white" fill-opacity="0.28"/>
<path d="M33.8438 126.051L39.7357 122.73C44.979 119.776 51.0834 118.879 56.8459 120.217L64.7841 122.06C67.3078 122.646 69.3816 119.895 68.1233 117.63L64.2891 110.729C61.3421 105.424 60.5595 99.1324 62.1026 93.1527L63.8897 86.2281C64.5529 83.6584 61.8484 81.6197 59.5606 82.9648L53.3957 86.5893C48.072 89.7193 41.8076 90.6992 35.897 89.3267L28.2066 87.541C25.6828 86.9549 23.609 89.706 24.8674 91.9708L28.8252 99.0947C31.6982 104.266 32.5167 110.381 31.1197 116.236L29.5497 122.814C28.9464 125.343 31.5791 127.327 33.8438 126.051ZM46.3955 154.411L48.0531 153.476C51.0085 151.809 54.4504 151.303 57.7004 152.056L60.1998 152.636C61.5516 152.949 62.661 151.477 61.9874 150.264L60.812 148.147C59.1509 145.154 58.7103 141.607 59.5811 138.236L60.0917 136.261C60.4473 134.884 58.9971 133.791 57.7713 134.511L56.0128 135.546C53.0125 137.312 49.4805 137.865 46.1468 137.092L43.787 136.545C42.4355 136.232 41.3261 137.703 41.9995 138.916L43.2446 141.16C44.8642 144.077 45.3247 147.525 44.5361 150.825L44.094 152.676C43.7701 154.031 45.182 155.095 46.3955 154.411Z" fill="white" fill-opacity="0.28"/>
</svg>
